<?xml version="1.0" encoding="UTF-8"?>
<svg id="Layer_1" xmlns="http://www.w3.org/2000/svg" version="1.1" viewBox="0 0 800 800">
  <!-- Generator: Adobe Illustrator 30.0.0, SVG Export Plug-In . SVG Version: 2.1.1 Build 123)  -->
  <defs>
    <style>
      .st0 {
        stroke-width: 40px;
      }

      .st0, .st1, .st2, .st3 {
        fill: none;
        stroke: currentColor;
        stroke-linecap: round;
        stroke-linejoin: round;
      }

      .st1 {
        stroke-width: 55px;
      }

      .st2 {
        stroke-width: 45px;
      }

      .st3 {
        stroke-width: 50px;
      }
    </style>
  </defs>
  <path class="st3" d="M415.49,679.75l60.35-7.7"/>
  <path class="st2" d="M339.74,72.6l-5.5-38.03"/>
  <path class="st1" d="M317.84,125.97l-74.56,9.55c-44.71,5.72-75.86,43.21-69.6,83.78l74.68,481.96c6.3,40.55,47.63,68.8,92.33,63.11l213.86-27.27c44.71-5.72,75.85-43.2,69.6-83.76l-74.67-481.96c-6.3-40.56-47.64-68.82-92.36-63.14l-78.14,10.19"/>
  <path class="st3" d="M246.54,634.29l363.48-47.92"/>
  <path class="st0" d="M23.6,469.94l45.62,65.99,17.33-164.64,48.06,83.67,22.43-3.04"/>
  <path class="st0" d="M277.16,438.93l31.08-5,26.44-171.65,88.08,252.4,34.09-173.18,37.35,62.44,28.64-4.61"/>
  <path class="st0" d="M633.11,382.35l53.61-9.07,12.81-90.2,49.99,120.02,26.88-44.97"/>
</svg>